<?xml version="1.0" encoding="UTF-8" standalone="no"?>
<svg version="1.1" xmlns="http://www.w3.org/2000/svg" xmlns:xlink="http://www.w3.org/1999/xlink" width="316.8" height="624">
	<g id="dp_dp001" transform="matrix(1,0,0,1,-452.508,-62.9027)">
		<path id="dp_path002" fill="#212a40" fill-rule="evenodd" stroke="none" stroke-width="0" d="M 452.508,62.9027 L 769.307,62.9027 L 769.307,686.901 L 452.508,686.901 Z "/>
		<path id="dp_path003" fill="#a3a69c" fill-rule="evenodd" stroke="none" stroke-width="0" d="M 496.241,118.511 C 496.241,115.332 498.819,112.755 501.997,112.755 L 752.151,112.755 C 755.329,112.755 757.907,115.332 757.907,118.511 L 757.907,380.729 C 757.907,383.908 755.329,386.485 752.151,386.485 L 501.997,386.485 C 498.819,386.485 496.241,383.908 496.241,380.729 Z "/>
		<path id="dp_path004" fill="#a3a69c" stroke="#a3a69c" stroke-width="2.24579" d="M 479.549,126.572 L 479.549,536.065"/>
		<path id="dp_path005" fill="none" stroke="#a3a69c" stroke-width="2.2265" d="M 479.549,410.06 L 515.32,410.06"/>
		<path id="dp_path006" fill="#a3a69c" fill-rule="evenodd" stroke="#a3a69c" stroke-width="2.2265" d="M 479.92,388.98 C 482.571,388.98 484.719,391.053 484.719,393.611 C 484.719,396.168 482.571,398.241 479.92,398.241 C 477.269,398.241 475.121,396.168 475.121,393.611 C 475.121,391.053 477.269,388.98 479.92,388.98 Z "/>
		<path id="dp_path007" fill="none" fill-rule="evenodd" stroke="#fcb281" stroke-width="1.99978" d="M 476.56,393.609 L 483.279,393.609M 479.919,390.249 L 479.919,396.968"/>
		<path id="dp_path008" fill="none" stroke="#a3a69c" stroke-width="2.2265" d="M 479.549,445.103 L 515.32,445.103"/>
		<path id="dp_path009" fill="#a3a69c" fill-rule="evenodd" stroke="#a3a69c" stroke-width="2.2265" d="M 479.549,422.74 C 482.2,422.74 484.348,424.813 484.348,427.371 C 484.348,429.928 482.2,432.001 479.549,432.001 C 476.899,432.001 474.751,429.928 474.751,427.371 C 474.751,424.813 476.899,422.74 479.549,422.74 Z "/>
		<path id="dp_path010" fill="none" fill-rule="evenodd" stroke="#fcb281" stroke-width="1.99978" d="M 476.189,427.368 L 482.908,427.368M 479.548,424.009 L 479.548,430.728"/>
		<path id="dp_path011" fill="none" stroke="#a3a69c" stroke-width="2.2265" d="M 479.549,480.388 L 515.32,480.388"/>
		<path id="dp_path012" fill="#a3a69c" fill-rule="evenodd" stroke="#a3a69c" stroke-width="2.2265" d="M 479.921,459.489 C 482.572,459.489 484.72,461.563 484.72,464.12 C 484.72,466.677 482.572,468.751 479.921,468.751 C 477.271,468.751 475.123,466.677 475.123,464.12 C 475.123,461.563 477.271,459.489 479.921,459.489 Z "/>
		<path id="dp_path013" fill="none" fill-rule="evenodd" stroke="#fcb281" stroke-width="1.99978" d="M 476.561,464.117 L 483.28,464.117M 479.92,460.759 L 479.92,467.477"/>
		<path id="dp_path014" fill="none" stroke="#a3a69c" stroke-width="2.2265" d="M 479.549,515.552 L 515.32,515.552"/>
		<path id="dp_path015" fill="#a3a69c" fill-rule="evenodd" stroke="#a3a69c" stroke-width="2.2265" d="M 479.923,494.931 C 482.573,494.931 484.721,497.004 484.721,499.561 C 484.721,502.119 482.573,504.192 479.923,504.192 C 477.272,504.192 475.124,502.119 475.124,499.561 C 475.124,497.004 477.272,494.931 479.923,494.931 Z "/>
		<path id="dp_path016" fill="none" fill-rule="evenodd" stroke="#fcb281" stroke-width="1.99978" d="M 476.563,499.559 L 483.281,499.559M 479.921,496.2 L 479.921,502.917"/>
		<path id="dp_path017" fill="#d0f6d1" stroke="none" stroke-width="0" d="M 513.329,394.623 L 740.82,394.623 C 750.193,394.623 757.908,401.592 757.908,410.06 C 757.908,418.529 750.193,425.499 740.82,425.499 L 513.329,425.499 C 503.956,425.499 496.241,418.529 496.241,410.06 C 496.241,401.592 503.956,394.623 513.329,394.623 Z "/>
		<path id="dp_path018" fill="#d0f6d1" stroke="none" stroke-width="0" d="M 513.329,429.787 L 740.82,429.787 C 750.193,429.787 757.908,436.756 757.908,445.224 C 757.908,453.693 750.193,460.663 740.82,460.663 L 513.329,460.663 C 503.956,460.663 496.241,453.693 496.241,445.224 C 496.241,436.756 503.956,429.787 513.329,429.787 Z "/>
		<path id="dp_path019" fill="#d0f6d1" stroke="none" stroke-width="0" d="M 513.329,464.951 L 740.82,464.951 C 750.193,464.951 757.908,471.919 757.908,480.388 C 757.908,488.857 750.193,495.827 740.82,495.827 L 513.329,495.827 C 503.956,495.827 496.241,488.857 496.241,480.388 C 496.241,471.919 503.956,464.951 513.329,464.951 Z "/>
		<path id="dp_path020" fill="#d0f6d1" stroke="none" stroke-width="0" d="M 513.329,500.113 L 740.82,500.113 C 750.193,500.113 757.908,507.083 757.908,515.552 C 757.908,524.021 750.193,530.989 740.82,530.989 L 513.329,530.989 C 503.956,530.989 496.241,524.021 496.241,515.552 C 496.241,507.083 503.956,500.113 513.329,500.113 Z "/>
	</g>
	<text id="dp_text021" transform="matrix(1.03806,0,0,1,70.2667,311.297)" xml:space="preserve" fill="#212a40" font-family="Yu Gothic UI" font-size="9" font-weight="400" font-style="italic" x="0" y="0">Add new data field</text>
	<path id="dp_path022" transform="matrix(1,0,0,1,-452.508,-62.9027)" fill="#a6e07f" stroke="none" stroke-width="0" d="M 482.908,82.3267 L 737.908,82.3267 C 751.623,82.3267 762.908,93.2147 762.908,106.448 C 762.908,119.681 751.623,130.569 737.908,130.569 L 482.908,130.569 C 469.193,130.569 457.908,119.681 457.908,106.448 C 457.908,93.2147 469.193,82.3267 482.908,82.3267 Z "/>
	<g id="dp_dp023" transform="matrix(1,0,0,1,38.1867,36.5996)">
		<text id="dp_text024" transform="matrix(1.02006,0,0,1,0,0)" xml:space="preserve" fill="#212a40" font-family="Nirmala UI" font-size="9" font-weight="400" x="0" y="0.028">Bigger Digger</text>
		<text id="dp_text025" transform="matrix(1.01794,0,0,1,-1.04662,0)" xml:space="preserve" fill="#212a40" font-family="Nirmala UI" font-size="9" font-weight="400" x="58.3413" y="0.028"> </text>
		<text id="dp_text026" transform="matrix(1.01795,0,0,1,-1.09462,0)" xml:space="preserve" fill="#212a40" font-family="Nirmala UI" font-size="13" font-weight="700" x="60.996" y="0.028">.</text>
		<text id="dp_text027" transform="matrix(1.01794,0,0,1,-1.15837,0)" xml:space="preserve" fill="#212a40" font-family="Nirmala UI" font-size="9" font-weight="400" x="64.5707" y="0.028"> </text>
		<text id="dp_text028" transform="matrix(1.01976,0,0,1,-1.32817,0)" xml:space="preserve" fill="#212a40" font-family="Nirmala UI" font-size="9" font-weight="400" x="67.2253" y="0.028">HPU #3</text>
		<text id="dp_text029" transform="matrix(1.01794,0,0,1,-1.78015,0)" xml:space="preserve" fill="#212a40" font-family="Nirmala UI" font-size="9" font-weight="400" x="99.2307" y="0.028"> </text>
		<text id="dp_text030" transform="matrix(1.01795,0,0,1,-1.82841,0)" xml:space="preserve" fill="#212a40" font-family="Nirmala UI" font-size="13" font-weight="700" x="101.885" y="0.028">.</text>
		<text id="dp_text031" transform="matrix(1.01794,0,0,1,-1.8919,0)" xml:space="preserve" fill="#212a40" font-family="Nirmala UI" font-size="9" font-weight="400" x="105.46" y="0.028"> </text>
		<text id="dp_text032" transform="matrix(1.01985,0,0,1,-2.14628,0)" xml:space="preserve" fill="#212a40" font-family="Nirmala UI" font-size="9" font-weight="400" x="108.115" y="0.028">hydraulic pump</text>
		<text id="dp_text033" transform="matrix(1.01794,0,0,1,-3.11696,0)" xml:space="preserve" fill="#212a40" font-family="Nirmala UI" font-size="9" font-weight="400" x="173.748" y="0.028"> </text>
		<text id="dp_text034" transform="matrix(1.01795,0,0,1,-3.16568,0)" xml:space="preserve" fill="#212a40" font-family="Nirmala UI" font-size="13" font-weight="700" x="176.403" y="0.028">.</text>
		<text id="dp_text035" transform="matrix(1.01794,0,0,1,-3.22871,0)" xml:space="preserve" fill="#212a40" font-family="Nirmala UI" font-size="9" font-weight="400" x="179.977" y="0.028"> </text>
	</g>
	<text id="dp_text036" transform="matrix(0.839662,0,0,1,223.734,36.4829)" xml:space="preserve" fill="#212a40" font-family="Nirmala UI" font-size="13" font-weight="700" x="0" y="0.024">electric motor</text>
	<text id="dp_text037" transform="matrix(0.960962,0,0,1,97.4907,55.7677)" xml:space="preserve" fill="#212a40" font-family="Yu Gothic UI" font-size="9" font-weight="400" font-style="italic" x="0" y="0.00133333">3 phase motor driving hydraulic pump</text>
	<g id="dp_dp038" transform="matrix(1,0,0,1,-452.508,-62.9027)">
		<path id="dp_path039" fill="#212a40" stroke="none" stroke-width="0" d="M 538.683,119.801 L 534.568,110.204 L 544.167,110.204 Z "/>
		<path id="dp_path040" fill="#a3a69c" fill-rule="evenodd" stroke="#a3a69c" stroke-width="2.2265" d="M 479.919,528.315 C 482.569,528.315 484.717,530.388 484.717,532.945 C 484.717,535.503 482.569,537.576 479.919,537.576 C 477.268,537.576 475.12,535.503 475.12,532.945 C 475.12,530.388 477.268,528.315 479.919,528.315 Z "/>
		<path id="dp_path041" fill="none" fill-rule="evenodd" stroke="#fcb281" stroke-width="1.99978" d="M 476.559,532.943 L 483.277,532.943M 479.917,529.584 L 479.917,536.303"/>
	</g>
	<g id="dp_dp042" transform="matrix(1,0,0,1,72.1693,344.966)">
		<text id="dp_text043" transform="matrix(0.976065,0,0,1,0,0)" xml:space="preserve" fill="#212a40" font-family="Nirmala UI" font-size="8" font-weight="400" x="0" y="0.036">HPU #3 </text>
		<text id="dp_text044" transform="matrix(0.974909,0,0,1,0.687023,0)" xml:space="preserve" fill="#212a40" font-family="Nirmala UI" font-size="14" font-weight="700" x="27.3813" y="0.036">.</text>
		<text id="dp_text045" transform="matrix(0.976215,0,0,1,0.73658,0)" xml:space="preserve" fill="#212a40" font-family="Nirmala UI" font-size="8" font-weight="400" x="30.968" y="0.036"> hydraulic pump </text>
		<text id="dp_text046" transform="matrix(0.973326,0,0,1,2.31888,0)" xml:space="preserve" fill="#212a40" font-family="Nirmala UI" font-size="13" font-weight="700" x="86.9333" y="0.036">. </text>
		<text id="dp_text047" transform="matrix(0.976371,0,0,1,2.21646,0)" xml:space="preserve" fill="#212a40" font-family="Nirmala UI" font-size="8" font-weight="400" x="93.8013" y="0.036">electric motor </text>
		<text id="dp_text048" transform="matrix(0.974809,0,0,1,3.57898,0)" xml:space="preserve" fill="#212a40" font-family="Nirmala UI" font-size="13" font-weight="700" x="142.075" y="0.036">.</text>
		<text id="dp_text049" transform="matrix(0.974252,0,0,1,3.74604,0)" xml:space="preserve" fill="#212a40" font-family="Nirmala UI" font-size="9" font-weight="700" x="145.491" y="0.036"> shaft coupling</text>
	</g>
	<text id="dp_text050" transform="matrix(1.03818,0,0,1,80.5333,355.451)" xml:space="preserve" fill="#212a40" font-family="Yu Gothic UI" font-size="8" font-weight="400" font-style="italic" x="0" y="0">Coupling connecting motor shaft to pump shaft</text>
	<g id="dp_dp051" transform="matrix(1,0,0,1,72.0147,378.445)">
		<text id="dp_text052" transform="matrix(1.01206,0,0,1,0,0)" xml:space="preserve" fill="#212a40" font-family="Nirmala UI" font-size="8" font-weight="400" x="0" y="0.0106667">HPU #3 </text>
		<text id="dp_text053" transform="matrix(1.01059,0,0,1,-0.300955,0)" xml:space="preserve" fill="#212a40" font-family="Nirmala UI" font-size="13" font-weight="700" x="28.408" y="0.0106667">. </text>
		<text id="dp_text054" transform="matrix(1.01242,0,0,1,-0.441432,0)" xml:space="preserve" fill="#212a40" font-family="Nirmala UI" font-size="8" font-weight="400" x="35.54" y="0.0106667">hydraulic pump </text>
		<text id="dp_text055" transform="matrix(1.01059,0,0,1,-0.969353,0)" xml:space="preserve" fill="#212a40" font-family="Nirmala UI" font-size="13" font-weight="700" x="91.5" y="0.0106667">. </text>
		<text id="dp_text056" transform="matrix(1.01202,0,0,1,-1.18523,0)" xml:space="preserve" fill="#212a40" font-family="Nirmala UI" font-size="8" font-weight="400" x="98.632" y="0.0106667">electric motor </text>
		<text id="dp_text057" transform="matrix(1.01107,0,0,1,-1.64631,0)" xml:space="preserve" fill="#212a40" font-family="Nirmala UI" font-size="13" font-weight="700" x="148.679" y="0.0106667">.</text>
		<text id="dp_text058" transform="matrix(1.0121,0,0,1,-1.84251,0)" xml:space="preserve" fill="#212a40" font-family="Nirmala UI" font-size="9" font-weight="700" x="152.225" y="0.0106667"> bell housing</text>
	</g>
	<text id="dp_text059" transform="matrix(1.03828,0,0,1,80.928,389.445)" xml:space="preserve" fill="#212a40" font-family="Yu Gothic UI" font-size="8" font-weight="400" font-style="italic" x="0" y="0">Mounting bracket holding pump to motor</text>
	<path id="dp_path060" transform="matrix(1,0,0,1,-452.508,-62.9027)" fill="#f2c1a0" fill-rule="evenodd" stroke="#fcb281" stroke-width="1.99978" d="M 504.211,370.465 L 510.928,370.465M 507.569,367.105 L 507.569,373.824"/>
	<g id="dp_dp061" transform="matrix(1,0,0,1,70.2667,89.0872)">
		<text id="dp_text062" transform="matrix(1.03842,0,0,1,0,0)" xml:space="preserve" fill="#212a40" font-family="Yu Gothic UI" font-size="9" font-weight="400" x="0" y="-0.00133333">Description: </text>
		<text id="dp_text063" transform="matrix(1.03797,0,0,1,-2.02963,0)" xml:space="preserve" fill="#212a40" font-family="Yu Gothic UI" font-size="9" font-weight="400" font-style="italic" x="53.4587" y="-0.00133333"> This motor is the drive for the whole </text>
		<text id="dp_text064" transform="matrix(1.03783,0,0,1,0,0)" xml:space="preserve" fill="#212a40" font-family="Yu Gothic UI" font-size="9" font-weight="400" font-style="italic" x="0" y="12.4187">     hydraulic power system on the machine. This is </text>
		<text id="dp_text065" transform="matrix(1.03779,0,0,1,0,0)" xml:space="preserve" fill="#212a40" font-family="Yu Gothic UI" font-size="9" font-weight="400" font-style="italic" x="0" y="24.8387">     a description of the asset which could go on for </text>
		<text id="dp_text066" transform="matrix(1.03757,0,0,1,0,0)" xml:space="preserve" fill="#212a40" font-family="Yu Gothic UI" font-size="9" font-weight="400" font-style="italic" x="0" y="37.2587">     several lines.</text>
	</g>
	<g id="dp_dp067" transform="matrix(1,0,0,1,70.2667,144.921)">
		<text id="dp_text068" transform="matrix(1.03796,0,0,1,0,0)" xml:space="preserve" fill="#212a40" font-family="Yu Gothic UI" font-size="9" font-weight="400" x="0" y="0">TypeOf</text>
		<text id="dp_text069" transform="matrix(1.03854,0,0,1,-1.19148,0)" xml:space="preserve" fill="#212a40" font-family="Yu Gothic UI" font-size="9" font-weight="400" font-style="italic" x="30.912" y="0">:  electric_motor</text>
	</g>
	<g id="dp_dp070" transform="matrix(1,0,0,1,70.2667,168.689)">
		<text id="dp_text071" transform="matrix(1.03829,0,0,1,0,0)" xml:space="preserve" fill="#212a40" font-family="Yu Gothic UI" font-size="9" font-weight="400" x="0" y="0">Power Rating: </text>
		<text id="dp_text072" transform="matrix(1.0389,0,0,1,-2.39622,0)" xml:space="preserve" fill="#212a40" font-family="Yu Gothic UI" font-size="9" font-weight="400" font-style="italic" x="61.5987" y="0"> 2400W, 3000W peak</text>
	</g>
	<g id="dp_dp073" transform="matrix(1,0,0,1,70.2667,192.457)">
		<text id="dp_text074" transform="matrix(1.03837,0,0,1,0,0)" xml:space="preserve" fill="#212a40" font-family="Yu Gothic UI" font-size="9" font-weight="400" x="0" y="0">Design Voltage:</text>
		<text id="dp_text075" transform="matrix(1.03826,0,0,1,-2.57785,0)" xml:space="preserve" fill="#212a40" font-family="Yu Gothic UI" font-size="9" font-weight="400" font-style="italic" x="67.3733" y="0"> 240 V 3-phase</text>
	</g>
	<g id="dp_dp076" transform="matrix(1,0,0,1,70.2667,216.225)">
		<text id="dp_text077" transform="matrix(1.03874,0,0,1,0,0)" xml:space="preserve" fill="#212a40" font-family="Yu Gothic UI" font-size="9" font-weight="400" x="0" y="0">Rotation:</text>
		<text id="dp_text078" transform="matrix(1.03863,0,0,1,-1.49127,0)" xml:space="preserve" fill="#212a40" font-family="Yu Gothic UI" font-size="9" font-weight="400" font-style="italic" x="38.6027" y="0"> 600 rpm CW</text>
	</g>
	<g id="dp_dp079" transform="matrix(1,0,0,1,70.2667,239.993)">
		<text id="dp_text080" transform="matrix(1.03848,0,0,1,0,0)" xml:space="preserve" fill="#212a40" font-family="Yu Gothic UI" font-size="9" font-weight="400" x="0" y="0">Mounting:</text>
		<text id="dp_text081" transform="matrix(1.0387,0,0,1,-1.71645,0)" xml:space="preserve" fill="#212a40" font-family="Yu Gothic UI" font-size="9" font-weight="400" font-style="italic" x="44.3493" y="0"> NEMA B14, 240mm</text>
	</g>
	<g id="dp_dp082" transform="matrix(1,0,0,1,70.2667,263.761)">
		<text id="dp_text083" transform="matrix(1.03822,0,0,1,0,0)" xml:space="preserve" fill="#212a40" font-family="Yu Gothic UI" font-size="9" font-weight="400" x="0" y="0">Manufacturer: </text>
		<text id="dp_text084" transform="matrix(1.03812,0,0,1,-2.38208,0)" xml:space="preserve" fill="#212a40" font-family="Yu Gothic UI" font-size="9" font-weight="400" font-style="italic" x="62.4947" y="0">Bosch</text>
	</g>
	<g id="dp_dp085" transform="matrix(1,0,0,1,70.2667,287.529)">
		<text id="dp_text086" transform="matrix(1.03833,0,0,1,0,0)" xml:space="preserve" fill="#212a40" font-family="Yu Gothic UI" font-size="9" font-weight="400" x="0" y="0">Manufacturer Part Number:</text>
		<text id="dp_text087" transform="matrix(1.03912,0,0,1,-4.59547,0)" xml:space="preserve" fill="#212a40" font-family="Yu Gothic UI" font-size="9" font-weight="400" font-style="italic" x="117.472" y="0"> AB-123456XXYY</text>
	</g>
	<g id="dp_dp088" transform="matrix(1,0,0,1,-452.508,-62.9027)">
		<path id="dp_path089" fill="#fcb281" fill-rule="evenodd" stroke="none" stroke-width="0" d="M 510.928,148.784 L 504.209,151.96 L 504.209,144.551 Z "/>
		<path id="dp_path090" fill="#fcb281" fill-rule="evenodd" stroke="none" stroke-width="0" d="M 510.928,204.619 L 504.209,207.793 L 504.209,200.385 Z "/>
		<path id="dp_path091" fill="#fcb281" fill-rule="evenodd" stroke="none" stroke-width="0" d="M 510.928,228.387 L 504.209,231.561 L 504.209,224.153 Z "/>
		<path id="dp_path092" fill="#fcb281" fill-rule="evenodd" stroke="none" stroke-width="0" d="M 510.928,252.155 L 504.209,255.329 L 504.209,247.921 Z "/>
		<path id="dp_path093" fill="#fcb281" fill-rule="evenodd" stroke="none" stroke-width="0" d="M 510.928,275.923 L 504.209,279.097 L 504.209,271.689 Z "/>
		<path id="dp_path094" fill="#fcb281" fill-rule="evenodd" stroke="none" stroke-width="0" d="M 510.928,299.691 L 504.209,302.865 L 504.209,295.457 Z "/>
		<path id="dp_path095" fill="#fcb281" fill-rule="evenodd" stroke="none" stroke-width="0" d="M 510.928,323.459 L 504.209,326.633 L 504.209,319.225 Z "/>
		<path id="dp_path096" fill="#fcb281" fill-rule="evenodd" stroke="none" stroke-width="0" d="M 510.928,347.227 L 504.209,350.401 L 504.209,342.993 Z "/>
		<path id="dp_path097" fill="#212a40" fill-rule="evenodd" stroke="none" stroke-width="0" d="M 477.468,94.7653 L 472.029,104.952 L 475.728,104.952 L 475.728,114.74 L 479.209,114.74 L 479.209,104.952 L 482.908,104.952 Z "/>
	</g>
	<g id="dp_dp098" transform="matrix(1,0,0,1,79.5827,413.993)">
		<text id="dp_text099" transform="matrix(1.01206,0,0,1,0,0)" xml:space="preserve" fill="#212a40" font-family="Nirmala UI" font-size="8" font-weight="400" x="0" y="0.0106667">HPU #3 </text>
		<text id="dp_text100" transform="matrix(1.01059,0,0,1,-0.300955,0)" xml:space="preserve" fill="#212a40" font-family="Nirmala UI" font-size="13" font-weight="700" x="28.408" y="0.0106667">. </text>
		<text id="dp_text101" transform="matrix(1.01242,0,0,1,-0.441432,0)" xml:space="preserve" fill="#212a40" font-family="Nirmala UI" font-size="8" font-weight="400" x="35.54" y="0.0106667">hydraulic pump </text>
		<text id="dp_text102" transform="matrix(1.01059,0,0,1,-0.969353,0)" xml:space="preserve" fill="#212a40" font-family="Nirmala UI" font-size="13" font-weight="700" x="91.5" y="0.0106667">. </text>
		<text id="dp_text103" transform="matrix(1.01202,0,0,1,-1.18523,0)" xml:space="preserve" fill="#212a40" font-family="Nirmala UI" font-size="8" font-weight="400" x="98.632" y="0.0106667">electric motor </text>
		<text id="dp_text104" transform="matrix(1.01107,0,0,1,-1.64631,0)" xml:space="preserve" fill="#212a40" font-family="Nirmala UI" font-size="13" font-weight="700" x="148.679" y="0.0106667">.</text>
		<text id="dp_text105" transform="matrix(1.01222,0,0,1,-1.85977,0)" xml:space="preserve" fill="#212a40" font-family="Nirmala UI" font-size="9" font-weight="700" x="152.225" y="0.0106667"> bearings</text>
	</g>
	<text id="dp_text106" transform="matrix(1.03833,0,0,1,80.928,424.992)" xml:space="preserve" fill="#212a40" font-family="Yu Gothic UI" font-size="8" font-weight="400" font-style="italic" x="0" y="0">6204 deep groove ball bearings X2</text>
	<g id="dp_dp107" transform="matrix(1,0,0,1,70.472,449.541)">
		<text id="dp_text108" transform="matrix(1.01206,0,0,1,0,0)" xml:space="preserve" fill="#212a40" font-family="Nirmala UI" font-size="8" font-weight="400" x="0" y="0.0106667">HPU #3 </text>
		<text id="dp_text109" transform="matrix(1.01059,0,0,1,-0.300955,0)" xml:space="preserve" fill="#212a40" font-family="Nirmala UI" font-size="13" font-weight="700" x="28.408" y="0.0106667">. </text>
		<text id="dp_text110" transform="matrix(1.01242,0,0,1,-0.441432,0)" xml:space="preserve" fill="#212a40" font-family="Nirmala UI" font-size="8" font-weight="400" x="35.54" y="0.0106667">hydraulic pump </text>
		<text id="dp_text111" transform="matrix(1.01059,0,0,1,-0.969353,0)" xml:space="preserve" fill="#212a40" font-family="Nirmala UI" font-size="13" font-weight="700" x="91.5" y="0.0106667">. </text>
		<text id="dp_text112" transform="matrix(1.01202,0,0,1,-1.18523,0)" xml:space="preserve" fill="#212a40" font-family="Nirmala UI" font-size="8" font-weight="400" x="98.632" y="0.0106667">electric motor </text>
		<text id="dp_text113" transform="matrix(1.01107,0,0,1,-1.64631,0)" xml:space="preserve" fill="#212a40" font-family="Nirmala UI" font-size="13" font-weight="700" x="148.679" y="0.0106667">.</text>
		<text id="dp_text114" transform="matrix(1.01221,0,0,1,-1.8593,0)" xml:space="preserve" fill="#212a40" font-family="Nirmala UI" font-size="9" font-weight="700" x="152.225" y="0.0106667"> fan assembly</text>
	</g>
	<text id="dp_text115" transform="matrix(1.03818,0,0,1,80.928,460.541)" xml:space="preserve" fill="#212a40" font-family="Yu Gothic UI" font-size="8" font-weight="400" font-style="italic" x="0" y="0">Spins around in vain trying to keep motor cool</text>
	<path id="dp_path116" transform="matrix(1,0,0,1,-452.508,-62.9027)" fill="none" fill-rule="evenodd" stroke="#d0f6d1" stroke-width="0.666667" d="M 499.445,370.464 C 499.445,365.603 503.387,361.661 508.248,361.661 L 600.468,361.661 C 605.329,361.661 609.271,365.603 609.271,370.464 C 609.271,375.325 605.329,379.267 600.468,379.267 L 508.248,379.267 C 503.387,379.267 499.445,375.325 499.445,370.464 Z "/>
</svg>