<?xml version="1.0" encoding="UTF-8" standalone="no"?>
<svg version="1.1" xmlns="http://www.w3.org/2000/svg" xmlns:xlink="http://www.w3.org/1999/xlink" width="310" height="583">
	<g id="dp_dp001" transform="matrix(1,0,0,1,-15.9813,-22.2453)">
		<path id="dp_path002" fill="#004275" fill-rule="evenodd" stroke="none" stroke-width="0" d="M 15.9813,22.2453 L 325.964,22.2453 L 325.964,604.992 L 15.9813,604.992 Z "/>
		<path id="dp_path003" fill="#6b6b6b" fill-rule="evenodd" stroke="none" stroke-width="0" d="M 56.3067,75.5093 C 56.3067,72.3307 58.884,69.7533 62.0627,69.7533 L 312.216,69.7533 C 315.395,69.7533 317.972,72.3307 317.972,75.5093 L 317.972,335.061 C 317.972,338.24 315.395,340.817 312.216,340.817 L 62.0627,340.817 C 58.884,340.817 56.3067,338.24 56.3067,335.061 Z "/>
		<path id="dp_path004" fill="#a4fefe" stroke="#6b6b6b" stroke-width="2.23602" d="M 39.6147,83.5707 L 39.6147,489.512"/>
		<path id="dp_path005" fill="#a4fefe" stroke="#6b6b6b" stroke-width="2.2265" d="M 39.6147,367.059 L 75.3853,367.059"/>
		<path id="dp_path006" fill="#6b6b6b" fill-rule="evenodd" stroke="#6b6b6b" stroke-width="2.2265" d="M 39.6147,362.429 C 42.2653,362.429 44.4133,364.503 44.4133,367.06 C 44.4133,369.617 42.2653,371.691 39.6147,371.691 C 36.964,371.691 34.816,369.617 34.816,367.06 C 34.816,364.503 36.964,362.429 39.6147,362.429 Z "/>
		<path id="dp_path007" fill="#a4fefe" fill-rule="evenodd" stroke="#c6f9b8" stroke-width="1.96456" d="M 36.2547,367.059 L 42.9733,367.059M 39.6133,363.816 L 39.6133,370.3"/>
		<path id="dp_path008" fill="#a4fefe" stroke="#6b6b6b" stroke-width="2.2265" d="M 39.6147,402.101 L 75.3853,402.101"/>
		<path id="dp_path009" fill="#6b6b6b" fill-rule="evenodd" stroke="#6b6b6b" stroke-width="2.2265" d="M 39.6147,397.593 C 42.2653,397.593 44.4133,399.667 44.4133,402.224 C 44.4133,404.781 42.2653,406.855 39.6147,406.855 C 36.964,406.855 34.816,404.781 34.816,402.224 C 34.816,399.667 36.964,397.593 39.6147,397.593 Z "/>
		<path id="dp_path010" fill="#a4fefe" fill-rule="evenodd" stroke="#c6f9b8" stroke-width="1.96456" d="M 36.2547,402.221 L 42.9733,402.221M 39.6133,398.98 L 39.6133,405.464"/>
		<path id="dp_path011" fill="#a4fefe" stroke="#6b6b6b" stroke-width="2.2265" d="M 39.6147,437.387 L 75.3853,437.387"/>
		<path id="dp_path012" fill="#6b6b6b" fill-rule="evenodd" stroke="#6b6b6b" stroke-width="2.2265" d="M 39.6147,432.757 C 42.2653,432.757 44.4133,434.831 44.4133,437.388 C 44.4133,439.945 42.2653,442.019 39.6147,442.019 C 36.964,442.019 34.816,439.945 34.816,437.388 C 34.816,434.831 36.964,432.757 39.6147,432.757 Z "/>
		<path id="dp_path013" fill="#a4fefe" fill-rule="evenodd" stroke="#c6f9b8" stroke-width="1.96456" d="M 36.2547,437.385 L 42.9733,437.385M 39.6133,434.144 L 39.6133,440.628"/>
		<path id="dp_path014" fill="#a4fefe" stroke="#6b6b6b" stroke-width="2.2265" d="M 39.6147,472.551 L 75.3853,472.551"/>
		<path id="dp_path015" fill="#6b6b6b" fill-rule="evenodd" stroke="#6b6b6b" stroke-width="2.2265" d="M 39.6147,467.921 C 42.2653,467.921 44.4133,469.995 44.4133,472.552 C 44.4133,475.109 42.2653,477.183 39.6147,477.183 C 36.964,477.183 34.816,475.109 34.816,472.552 C 34.816,469.995 36.964,467.921 39.6147,467.921 Z "/>
		<path id="dp_path016" fill="#a4fefe" fill-rule="evenodd" stroke="#c6f9b8" stroke-width="1.96456" d="M 36.2547,472.549 L 42.9733,472.549M 39.6133,469.308 L 39.6133,475.791"/>
		<path id="dp_path017" fill="#9be8c6" stroke="none" stroke-width="0" d="M 73.3947,351.621 L 300.885,351.621 C 310.259,351.621 317.973,358.591 317.973,367.059 C 317.973,375.528 310.259,382.497 300.885,382.497 L 73.3947,382.497 C 64.0213,382.497 56.3067,375.528 56.3067,367.059 C 56.3067,358.591 64.0213,351.621 73.3947,351.621 Z "/>
		<path id="dp_path018" fill="#9be8c6" stroke="none" stroke-width="0" d="M 73.3947,386.785 L 300.885,386.785 C 310.259,386.785 317.973,393.755 317.973,402.223 C 317.973,410.692 310.259,417.661 300.885,417.661 L 73.3947,417.661 C 64.0213,417.661 56.3067,410.692 56.3067,402.223 C 56.3067,393.755 64.0213,386.785 73.3947,386.785 Z "/>
		<path id="dp_path019" fill="#9be8c6" stroke="none" stroke-width="0" d="M 73.3947,421.949 L 300.885,421.949 C 310.259,421.949 317.973,428.917 317.973,437.387 C 317.973,445.856 310.259,452.825 300.885,452.825 L 73.3947,452.825 C 64.0213,452.825 56.3067,445.856 56.3067,437.387 C 56.3067,428.917 64.0213,421.949 73.3947,421.949 Z "/>
		<path id="dp_path020" fill="#9be8c6" stroke="none" stroke-width="0" d="M 73.3947,457.112 L 300.885,457.112 C 310.259,457.112 317.973,464.081 317.973,472.551 C 317.973,481.02 310.259,487.988 300.885,487.988 L 73.3947,487.988 C 64.0213,487.988 56.3067,481.02 56.3067,472.551 C 56.3067,464.081 64.0213,457.112 73.3947,457.112 Z "/>
	</g>
	<text id="dp_text021" transform="matrix(1.03805,0,0,1,66.8587,308.953)" xml:space="preserve" fill="white" font-family="Yu Gothic UI" font-size="9" font-weight="400" font-style="italic" x="0" y="0">Add new data field</text>
	<path id="dp_path022" transform="matrix(1,0,0,1,-15.9813,-22.2453)" fill="#c6f9b8" stroke="none" stroke-width="0" d="M 42.9733,39.3253 L 297.973,39.3253 C 311.688,39.3253 322.973,50.2133 322.973,63.4467 C 322.973,76.68 311.688,87.568 297.973,87.568 L 42.9733,87.568 C 29.2587,87.568 17.9733,76.68 17.9733,63.4467 C 17.9733,50.2133 29.2587,39.3253 42.9733,39.3253 Z "/>
	<g id="dp_dp023" transform="matrix(1,0,0,1,34.7787,34.2556)">
		<text id="dp_text024" transform="matrix(1.01998,0,0,1,0,0)" xml:space="preserve" fill="black" font-family="Nirmala UI" font-size="9" font-weight="400" x="0" y="0.028">Bigger Digger </text>
		<text id="dp_text025" transform="matrix(1.01795,0,0,1,-1.11113,0)" xml:space="preserve" fill="black" font-family="Nirmala UI" font-size="13" font-weight="700" x="61.916" y="0.028">.</text>
		<text id="dp_text026" transform="matrix(1.01949,0,0,1,-1.27628,0)" xml:space="preserve" fill="black" font-family="Nirmala UI" font-size="9" font-weight="400" x="65.4907" y="0.028"> HPU #3 </text>
		<text id="dp_text027" transform="matrix(1.01795,0,0,1,-1.85409,0)" xml:space="preserve" fill="black" font-family="Nirmala UI" font-size="13" font-weight="700" x="103.316" y="0.028">.</text>
		<text id="dp_text028" transform="matrix(1.01971,0,0,1,-2.10652,0)" xml:space="preserve" fill="black" font-family="Nirmala UI" font-size="9" font-weight="400" x="106.891" y="0.028"> hydraulic pump </text>
		<text id="dp_text029" transform="matrix(1.01795,0,0,1,-3.20997,0)" xml:space="preserve" fill="black" font-family="Nirmala UI" font-size="13" font-weight="700" x="178.871" y="0.028">.</text>
		<text id="dp_text030" transform="matrix(1.01794,0,0,1,-3.27298,0)" xml:space="preserve" fill="black" font-family="Nirmala UI" font-size="9" font-weight="400" x="182.445" y="0.028"> </text>
	</g>
	<text id="dp_text031" transform="matrix(0.839662,0,0,1,220.326,34.1389)" xml:space="preserve" fill="black" font-family="Nirmala UI" font-size="13" font-weight="700" x="0" y="0.024">electric motor</text>
	<text id="dp_text032" transform="matrix(0.960963,0,0,1,94.0827,53.4237)" xml:space="preserve" fill="black" font-family="Yu Gothic UI" font-size="10" font-weight="400" font-style="italic" x="0" y="0.00133333">3 phase motor driving hydraulic pump</text>
	<g id="dp_dp033" transform="matrix(1,0,0,1,-15.9813,-22.2453)">
		<path id="dp_path034" fill="#004275" stroke="none" stroke-width="0" d="M 98.748,76.1693 L 94.6333,67.8347 L 104.232,67.8347 Z "/>
		<path id="dp_path035" fill="#6b6b6b" fill-rule="evenodd" stroke="#6b6b6b" stroke-width="2.2265" d="M 39.6147,489.992 C 42.2653,489.992 44.4133,492.065 44.4133,494.623 C 44.4133,497.18 42.2653,499.253 39.6147,499.253 C 36.964,499.253 34.816,497.18 34.816,494.623 C 34.816,492.065 36.964,489.992 39.6147,489.992 Z "/>
		<path id="dp_path036" fill="#a4fefe" fill-rule="evenodd" stroke="#c6f9b8" stroke-width="1.96456" d="M 36.2547,494.62 L 42.9733,494.62M 39.6133,491.379 L 39.6133,497.863"/>
	</g>
	<g id="dp_dp037" transform="matrix(1,0,0,1,68.7613,342.622)">
		<text id="dp_text038" transform="matrix(0.976065,0,0,1,0,0)" xml:space="preserve" fill="black" font-family="Nirmala UI" font-size="8" font-weight="400" x="0" y="0.036">HPU #3 </text>
		<text id="dp_text039" transform="matrix(0.974909,0,0,1,0.687023,0)" xml:space="preserve" fill="black" font-family="Nirmala UI" font-size="14" font-weight="700" x="27.3813" y="0.036">.</text>
		<text id="dp_text040" transform="matrix(0.976215,0,0,1,0.73658,0)" xml:space="preserve" fill="black" font-family="Nirmala UI" font-size="8" font-weight="400" x="30.968" y="0.036"> hydraulic pump </text>
		<text id="dp_text041" transform="matrix(0.973326,0,0,1,2.31888,0)" xml:space="preserve" fill="black" font-family="Nirmala UI" font-size="13" font-weight="700" x="86.9333" y="0.036">. </text>
		<text id="dp_text042" transform="matrix(0.976371,0,0,1,2.21646,0)" xml:space="preserve" fill="black" font-family="Nirmala UI" font-size="8" font-weight="400" x="93.8013" y="0.036">electric motor </text>
		<text id="dp_text043" transform="matrix(0.974809,0,0,1,3.57898,0)" xml:space="preserve" fill="black" font-family="Nirmala UI" font-size="13" font-weight="700" x="142.075" y="0.036">.</text>
		<text id="dp_text044" transform="matrix(0.974252,0,0,1,3.74604,0)" xml:space="preserve" fill="black" font-family="Nirmala UI" font-size="9" font-weight="700" x="145.491" y="0.036"> shaft coupling</text>
	</g>
	<text id="dp_text045" transform="matrix(1.03818,0,0,1,77.1253,353.107)" xml:space="preserve" fill="black" font-family="Yu Gothic UI" font-size="7" font-weight="400" font-style="italic" x="0" y="0">Coupling connecting motor shaft to pump shaft</text>
	<g id="dp_dp046" transform="matrix(1,0,0,1,68.6067,376.101)">
		<text id="dp_text047" transform="matrix(1.01206,0,0,1,0,0)" xml:space="preserve" fill="black" font-family="Nirmala UI" font-size="8" font-weight="400" x="0" y="0.0106667">HPU #3 </text>
		<text id="dp_text048" transform="matrix(1.01059,0,0,1,-0.300955,0)" xml:space="preserve" fill="black" font-family="Nirmala UI" font-size="13" font-weight="700" x="28.408" y="0.0106667">. </text>
		<text id="dp_text049" transform="matrix(1.01242,0,0,1,-0.441432,0)" xml:space="preserve" fill="black" font-family="Nirmala UI" font-size="8" font-weight="400" x="35.54" y="0.0106667">hydraulic pump </text>
		<text id="dp_text050" transform="matrix(1.01059,0,0,1,-0.969353,0)" xml:space="preserve" fill="black" font-family="Nirmala UI" font-size="13" font-weight="700" x="91.5" y="0.0106667">. </text>
		<text id="dp_text051" transform="matrix(1.01202,0,0,1,-1.18523,0)" xml:space="preserve" fill="black" font-family="Nirmala UI" font-size="8" font-weight="400" x="98.632" y="0.0106667">electric motor </text>
		<text id="dp_text052" transform="matrix(1.01107,0,0,1,-1.64631,0)" xml:space="preserve" fill="black" font-family="Nirmala UI" font-size="13" font-weight="700" x="148.679" y="0.0106667">.</text>
		<text id="dp_text053" transform="matrix(1.0121,0,0,1,-1.84251,0)" xml:space="preserve" fill="black" font-family="Nirmala UI" font-size="9" font-weight="700" x="152.225" y="0.0106667"> bell housing</text>
	</g>
	<text id="dp_text054" transform="matrix(1.03828,0,0,1,77.52,387.101)" xml:space="preserve" fill="black" font-family="Yu Gothic UI" font-size="7" font-weight="400" font-style="italic" x="0" y="0">Mounting bracket holding pump to motor</text>
	<path id="dp_path055" transform="matrix(1,0,0,1,-15.9813,-22.2453)" fill="#a4fefe" fill-rule="evenodd" stroke="#c6f9b8" stroke-width="1.96456" d="M 64.276,327.464 L 70.9933,327.464M 67.6347,324.221 L 67.6347,330.705"/>
	<g id="dp_dp056" transform="matrix(1,0,0,1,66.8587,86.7432)">
		<text id="dp_text057" transform="matrix(1.03845,0,0,1,0,0)" xml:space="preserve" fill="white" font-family="Yu Gothic UI" font-size="9" font-weight="400" x="0" y="-0.00133333">Description: </text>
		<text id="dp_text058" transform="matrix(1.03796,0,0,1,-1.95781,0)" xml:space="preserve" fill="white" font-family="Yu Gothic UI" font-size="9" font-weight="400" font-style="italic" x="51.5733" y="-0.00133333"> This motor is the drive for the whole </text>
		<text id="dp_text059" transform="matrix(1.03783,0,0,1,0,0)" xml:space="preserve" fill="white" font-family="Yu Gothic UI" font-size="9" font-weight="400" font-style="italic" x="0" y="11.9813">     hydraulic power system on the machine. This is </text>
		<text id="dp_text060" transform="matrix(1.03779,0,0,1,0,0)" xml:space="preserve" fill="white" font-family="Yu Gothic UI" font-size="9" font-weight="400" font-style="italic" x="0" y="23.964">     a description of the asset which could go on for </text>
		<text id="dp_text061" transform="matrix(1.03759,0,0,1,0,0)" xml:space="preserve" fill="white" font-family="Yu Gothic UI" font-size="9" font-weight="400" font-style="italic" x="0" y="35.9467">     several lines.</text>
	</g>
	<g id="dp_dp062" transform="matrix(1,0,0,1,66.8587,142.577)">
		<text id="dp_text063" transform="matrix(1.03799,0,0,1,0,0)" xml:space="preserve" fill="white" font-family="Yu Gothic UI" font-size="9" font-weight="400" x="0" y="0">TypeOf</text>
		<text id="dp_text064" transform="matrix(1.03855,0,0,1,-1.14995,0)" xml:space="preserve" fill="white" font-family="Yu Gothic UI" font-size="9" font-weight="400" font-style="italic" x="29.8267" y="0">:  electric_motor</text>
	</g>
	<g id="dp_dp065" transform="matrix(1,0,0,1,66.8587,166.345)">
		<text id="dp_text066" transform="matrix(1.03828,0,0,1,0,0)" xml:space="preserve" fill="white" font-family="Yu Gothic UI" font-size="9" font-weight="400" x="0" y="0">Power Rating: </text>
		<text id="dp_text067" transform="matrix(1.0389,0,0,1,-2.31209,0)" xml:space="preserve" fill="white" font-family="Yu Gothic UI" font-size="9" font-weight="400" font-style="italic" x="59.436" y="0"> 2400W, 3000W peak</text>
	</g>
	<g id="dp_dp068" transform="matrix(1,0,0,1,66.8587,190.113)">
		<text id="dp_text069" transform="matrix(1.03838,0,0,1,0,0)" xml:space="preserve" fill="white" font-family="Yu Gothic UI" font-size="9" font-weight="400" x="0" y="0">Design Voltage:</text>
		<text id="dp_text070" transform="matrix(1.03826,0,0,1,-2.48722,0)" xml:space="preserve" fill="white" font-family="Yu Gothic UI" font-size="9" font-weight="400" font-style="italic" x="65.0053" y="0"> 240 V 3-phase</text>
	</g>
	<g id="dp_dp071" transform="matrix(1,0,0,1,66.8587,213.881)">
		<text id="dp_text072" transform="matrix(1.03877,0,0,1,0,0)" xml:space="preserve" fill="white" font-family="Yu Gothic UI" font-size="9" font-weight="400" x="0" y="0">Rotation:</text>
		<text id="dp_text073" transform="matrix(1.03863,0,0,1,-1.43882,0)" xml:space="preserve" fill="white" font-family="Yu Gothic UI" font-size="9" font-weight="400" font-style="italic" x="37.2493" y="0"> 600 rpm CW</text>
	</g>
	<g id="dp_dp074" transform="matrix(1,0,0,1,66.8587,237.649)">
		<text id="dp_text075" transform="matrix(1.03848,0,0,1,0,0)" xml:space="preserve" fill="white" font-family="Yu Gothic UI" font-size="9" font-weight="400" x="0" y="0">Mounting:</text>
		<text id="dp_text076" transform="matrix(1.0387,0,0,1,-1.65603,0)" xml:space="preserve" fill="white" font-family="Yu Gothic UI" font-size="9" font-weight="400" font-style="italic" x="42.7933" y="0"> NEMA B14, 240mm</text>
	</g>
	<g id="dp_dp077" transform="matrix(1,0,0,1,66.8587,261.417)">
		<text id="dp_text078" transform="matrix(1.03821,0,0,1,0,0)" xml:space="preserve" fill="white" font-family="Yu Gothic UI" font-size="9" font-weight="400" x="0" y="0">Manufacturer: </text>
		<text id="dp_text079" transform="matrix(1.03814,0,0,1,-2.29973,0)" xml:space="preserve" fill="white" font-family="Yu Gothic UI" font-size="9" font-weight="400" font-style="italic" x="60.2987" y="0">Bosch</text>
	</g>
	<g id="dp_dp080" transform="matrix(1,0,0,1,66.8587,285.185)">
		<text id="dp_text081" transform="matrix(1.03832,0,0,1,0,0)" xml:space="preserve" fill="white" font-family="Yu Gothic UI" font-size="9" font-weight="400" x="0" y="0">Manufacturer Part Number:</text>
		<text id="dp_text082" transform="matrix(1.03914,0,0,1,-4.43643,0)" xml:space="preserve" fill="white" font-family="Yu Gothic UI" font-size="9" font-weight="400" font-style="italic" x="113.344" y="0"> AB-123456XXYY</text>
	</g>
	<g id="dp_dp083" transform="matrix(1,0,0,1,-15.9813,-22.2453)">
		<path id="dp_path084" fill="#c6f9b8" fill-rule="evenodd" stroke="none" stroke-width="0" d="M 70.9933,105.783 L 64.2747,108.959 L 64.2747,101.549 Z "/>
		<path id="dp_path085" fill="#c6f9b8" fill-rule="evenodd" stroke="none" stroke-width="0" d="M 70.9933,161.617 L 64.2747,164.792 L 64.2747,157.384 Z "/>
		<path id="dp_path086" fill="#c6f9b8" fill-rule="evenodd" stroke="none" stroke-width="0" d="M 70.9933,185.385 L 64.2747,188.56 L 64.2747,181.152 Z "/>
		<path id="dp_path087" fill="#c6f9b8" fill-rule="evenodd" stroke="none" stroke-width="0" d="M 70.9933,209.153 L 64.2747,212.328 L 64.2747,204.92 Z "/>
		<path id="dp_path088" fill="#c6f9b8" fill-rule="evenodd" stroke="none" stroke-width="0" d="M 70.9933,232.921 L 64.2747,236.096 L 64.2747,228.688 Z "/>
		<path id="dp_path089" fill="#c6f9b8" fill-rule="evenodd" stroke="none" stroke-width="0" d="M 70.9933,256.689 L 64.2747,259.864 L 64.2747,252.456 Z "/>
		<path id="dp_path090" fill="#c6f9b8" fill-rule="evenodd" stroke="none" stroke-width="0" d="M 70.9933,280.457 L 64.2747,283.632 L 64.2747,276.224 Z "/>
		<path id="dp_path091" fill="#c6f9b8" fill-rule="evenodd" stroke="none" stroke-width="0" d="M 70.9933,304.225 L 64.2747,307.4 L 64.2747,299.992 Z "/>
		<path id="dp_path092" fill="#004275" fill-rule="evenodd" stroke="none" stroke-width="0" d="M 33.9227,55.32 L 28.484,65.5067 L 32.1827,65.5067 L 32.1827,75.2947 L 35.664,75.2947 L 35.664,65.5067 L 39.3627,65.5067 Z "/>
	</g>
	<g id="dp_dp093" transform="matrix(1,0,0,1,76.1747,411.649)">
		<text id="dp_text094" transform="matrix(1.01206,0,0,1,0,0)" xml:space="preserve" fill="black" font-family="Nirmala UI" font-size="8" font-weight="400" x="0" y="0.0106667">HPU #3 </text>
		<text id="dp_text095" transform="matrix(1.01059,0,0,1,-0.300955,0)" xml:space="preserve" fill="black" font-family="Nirmala UI" font-size="13" font-weight="700" x="28.408" y="0.0106667">. </text>
		<text id="dp_text096" transform="matrix(1.01242,0,0,1,-0.441432,0)" xml:space="preserve" fill="black" font-family="Nirmala UI" font-size="8" font-weight="400" x="35.54" y="0.0106667">hydraulic pump </text>
		<text id="dp_text097" transform="matrix(1.01059,0,0,1,-0.969353,0)" xml:space="preserve" fill="black" font-family="Nirmala UI" font-size="13" font-weight="700" x="91.5" y="0.0106667">. </text>
		<text id="dp_text098" transform="matrix(1.01202,0,0,1,-1.18523,0)" xml:space="preserve" fill="black" font-family="Nirmala UI" font-size="8" font-weight="400" x="98.632" y="0.0106667">electric motor </text>
		<text id="dp_text099" transform="matrix(1.01107,0,0,1,-1.64631,0)" xml:space="preserve" fill="black" font-family="Nirmala UI" font-size="13" font-weight="700" x="148.679" y="0.0106667">.</text>
		<text id="dp_text100" transform="matrix(1.01222,0,0,1,-1.85977,0)" xml:space="preserve" fill="black" font-family="Nirmala UI" font-size="9" font-weight="700" x="152.225" y="0.0106667"> bearings</text>
	</g>
	<text id="dp_text101" transform="matrix(1.03834,0,0,1,77.52,422.648)" xml:space="preserve" fill="black" font-family="Yu Gothic UI" font-size="7" font-weight="400" font-style="italic" x="0" y="0">6204 deep groove ball bearings X2</text>
	<g id="dp_dp102" transform="matrix(1,0,0,1,67.064,447.197)">
		<text id="dp_text103" transform="matrix(1.01206,0,0,1,0,0)" xml:space="preserve" fill="black" font-family="Nirmala UI" font-size="8" font-weight="400" x="0" y="0.0106667">HPU #3 </text>
		<text id="dp_text104" transform="matrix(1.01059,0,0,1,-0.300955,0)" xml:space="preserve" fill="black" font-family="Nirmala UI" font-size="13" font-weight="700" x="28.408" y="0.0106667">. </text>
		<text id="dp_text105" transform="matrix(1.01242,0,0,1,-0.441432,0)" xml:space="preserve" fill="black" font-family="Nirmala UI" font-size="8" font-weight="400" x="35.54" y="0.0106667">hydraulic pump </text>
		<text id="dp_text106" transform="matrix(1.01059,0,0,1,-0.969353,0)" xml:space="preserve" fill="black" font-family="Nirmala UI" font-size="13" font-weight="700" x="91.5" y="0.0106667">. </text>
		<text id="dp_text107" transform="matrix(1.01202,0,0,1,-1.18523,0)" xml:space="preserve" fill="black" font-family="Nirmala UI" font-size="8" font-weight="400" x="98.632" y="0.0106667">electric motor </text>
		<text id="dp_text108" transform="matrix(1.01107,0,0,1,-1.64631,0)" xml:space="preserve" fill="black" font-family="Nirmala UI" font-size="13" font-weight="700" x="148.679" y="0.0106667">.</text>
		<text id="dp_text109" transform="matrix(1.01221,0,0,1,-1.8593,0)" xml:space="preserve" fill="black" font-family="Nirmala UI" font-size="9" font-weight="700" x="152.225" y="0.0106667"> fan assembly</text>
	</g>
	<text id="dp_text110" transform="matrix(1.03828,0,0,1,77.52,458.197)" xml:space="preserve" fill="black" font-family="Yu Gothic UI" font-size="7" font-weight="400" font-style="italic" x="0" y="0">Mounting bracket holding pump to motor</text>
	<path id="dp_path111" transform="matrix(1,0,0,1,-15.9813,-22.2453)" fill="none" fill-rule="evenodd" stroke="#c6f9b8" stroke-width="0.133333" d="M 59.5107,327.463 C 59.5107,322.601 63.452,318.66 68.3133,318.66 L 160.533,318.66 C 165.395,318.66 169.336,322.601 169.336,327.463 C 169.336,332.324 165.395,336.265 160.533,336.265 L 68.3133,336.265 C 63.452,336.265 59.5107,332.324 59.5107,327.463 Z "/>
</svg>