<svg xmlns="http://www.w3.org/2000/svg" width="390" height="844" viewBox="0 0 390 844" font-family="Inter, Arial, sans-serif">
<rect x="0" y="0" width="390" height="844" fill="white"/>

<!-- BRANCH View: Parent (isParent) at top with expanded DataCard; children (isChild) below and indented -->

<!-- Parent Node (isParent, expanded) -->
<rect x="16" y="20" width="358" height="72" fill="#fff" stroke="#000" stroke-width="1.5"/>
<text x="48" y="50" font-size="16" font-weight="700" fill="#111">Parent Asset Name</text>
<text x="48" y="70" font-size="12" fill="#666">Parent subtitle / location / description</text>

<!-- Up Button on left end of isParent node -->
<g transform="translate(24,60)">
  <polygon points="6,-12 0,0 12,0" fill="#000"/>
  <line x1="6" y1="0" x2="6" y2="12" stroke="#000" stroke-width="3.5"/>
  <title>Up</title>
  <desc>Navigate to parent</desc>
</g>

<!-- Parent expand/collapse chevron (down; DataCard is expanded) on the right -->
<g transform="translate(346,60)">
  <polygon points="0,0 12,0 6,12" fill="#000"/>
  <title>Collapse DataCard</title>
</g>

<!-- Parent DataCard (expanded) -->
<rect x="47" y="92" width="327" height="442" fill="#fff" stroke="#000" stroke-width="1.5"/>

<!-- DataCard fields with left-side chevrons for Field Details -->
<!-- Field 1: Type Of -->
<g transform="translate(55,106)">
  <polygon points="0,0 10,6 0,12" fill="#000"/>
  <title>Expand Field Details</title>
</g>
<text x="71" y="116" font-size="12" fill="#111">Type Of:</text>
<text x="191" y="116" font-size="12" fill="#222" text-decoration="underline">Pump</text>

<!-- Field 2: Description -->
<g transform="translate(55,134)">
  <polygon points="0,0 10,6 0,12" fill="#000"/>
  <title>Expand Field Details</title>
</g>
<text x="71" y="144" font-size="12" fill="#111">Description:</text>
<text x="191" y="144" font-size="12" fill="#222" text-decoration="underline">Primary cooling pump for HVAC</text>

<!-- Field 3: Tags -->
<g transform="translate(55,162)">
  <polygon points="0,0 10,6 0,12" fill="#000"/>
  <title>Expand Field Details</title>
</g>
<text x="71" y="172" font-size="12" fill="#111">Tags:</text>
<text x="191" y="172" font-size="12" fill="#222" text-decoration="underline">critical, hvac, maintenance</text>

<!-- Field 4: Status -->
<g transform="translate(55,190)">
  <polygon points="0,0 10,6 0,12" fill="#000"/>
  <title>Expand Field Details</title>
</g>
<text x="71" y="200" font-size="12" fill="#111">Status:</text>
<text x="191" y="200" font-size="12" fill="#222" text-decoration="underline">In Service</text>

<!-- Field 5: Installed Date -->
<g transform="translate(55,218)">
  <polygon points="0,0 10,6 0,12" fill="#000"/>
  <title>Expand Field Details</title>
  </g>
<text x="71" y="228" font-size="12" fill="#111">Installed Date:</text>
<text x="191" y="228" font-size="12" fill="#222" text-decoration="underline">2025-01-01</text>

<!-- Field 6: Serial Number -->
<g transform="translate(55,246)">
  <polygon points="0,0 10,6 0,12" fill="#000"/>
  <title>Expand Field Details</title>
</g>
<text x="71" y="256" font-size="12" fill="#111">Serial Number:</text>
<text x="191" y="256" font-size="12" fill="#222" text-decoration="underline">HVAC-2024-001</text>

<!-- Field 7: Part Number -->
<g transform="translate(55,274)">
  <polygon points="0,0 10,6 0,12" fill="#000"/>
  <title>Expand Field Details</title>
</g>
<text x="71" y="284" font-size="12" fill="#111">Part Number:</text>
<text x="191" y="284" font-size="12" fill="#222" text-decoration="underline">PN-ABC-123</text>

<!-- Field 8: Manufacturer -->
<g transform="translate(55,302)">
  <polygon points="0,0 10,6 0,12" fill="#000"/>
  <title>Expand Field Details</title>
</g>
<text x="71" y="312" font-size="12" fill="#111">Manufacturer:</text>
<text x="191" y="312" font-size="12" fill="#222" text-decoration="underline">Acme Inc.</text>

<!-- Field 9: Model -->
<g transform="translate(55,330)">
  <polygon points="0,0 10,6 0,12" fill="#000"/>
  <title>Expand Field Details</title>
</g>
<text x="71" y="340" font-size="12" fill="#111">Model:</text>
<text x="191" y="340" font-size="12" fill="#222" text-decoration="underline">XYZ-500</text>

<!-- Field 10: Location -->
<g transform="translate(55,358)">
  <polygon points="0,0 10,6 0,12" fill="#000"/>
  <title>Expand Field Details</title>
</g>
<text x="71" y="368" font-size="12" fill="#111">Location:</text>
<text x="191" y="368" font-size="12" fill="#222" text-decoration="underline">Building A, Room 102</text>

<!-- Field 11: Power Rating -->
<g transform="translate(55,386)">
  <polygon points="0,0 10,6 0,12" fill="#000"/>
  <title>Expand Field Details</title>
</g>
<text x="71" y="396" font-size="12" fill="#111">Power Rating:</text>
<text x="191" y="396" font-size="12" fill="#222" text-decoration="underline">1200W</text>

<!-- Field 12: Current Reading -->
<g transform="translate(55,414)">
  <polygon points="0,0 10,6 0,12" fill="#000"/>
  <title>Expand Field Details</title>
</g>
<text x="71" y="424" font-size="12" fill="#111">Current Reading:</text>
<text x="191" y="424" font-size="12" fill="#222" text-decoration="underline">5.4 amps at 2025-01-01</text>

<!-- Field 13: Weight -->
<g transform="translate(55,442)">
  <polygon points="0,0 10,6 0,12" fill="#000"/>
  <title>Expand Field Details</title>
</g>
<text x="71" y="452" font-size="12" fill="#111">Weight:</text>
<text x="191" y="452" font-size="12" fill="#222" text-decoration="underline">36.2 kg</text>

<!-- Field 14: Dimensions -->
<g transform="translate(55,470)">
  <polygon points="0,0 10,6 0,12" fill="#000"/>
  <title>Expand Field Details</title>
</g>
<text x="71" y="480" font-size="12" fill="#111">Dimensions:</text>
<text x="191" y="480" font-size="12" fill="#222" text-decoration="underline">310 x 210 x 110 mm</text>

<!-- Add Field button/text -->
<text x="59" y="508" font-size="12" fill="#222" font-weight="600">+ Add Field</text>

<!-- Children Container: isChild nodes, indented and slightly smaller -->

<!-- Child Node 1 (collapsed, isChild) -->
<rect x="47" y="546" width="327" height="64" fill="#fff" stroke="#000" stroke-width="1.5"/>
<text x="63" y="572" font-size="14" font-weight="700" fill="#111">Child Asset A</text>
<text x="63" y="592" font-size="11" fill="#666">Subtitle / Location / Short description</text>
<g transform="translate(346,578)">
  <polygon points="10,0 0,6 10,12" fill="#000"/>
  <title>Expand DataCard</title>
  <desc>Triangle indicates collapsed DataCard</desc>
</g>

<!-- Child Node 2 (collapsed, isChild) -->
<rect x="47" y="613" width="327" height="64" fill="#fff" stroke="#000" stroke-width="1.5"/>
<text x="63" y="639" font-size="14" font-weight="700" fill="#111">Child Asset B</text>
<text x="63" y="659" font-size="11" fill="#666">Subtitle / Location / Short description</text>
<g transform="translate(346,645)">
  <polygon points="10,0 0,6 10,12" fill="#000"/>
  <title>Expand DataCard</title>
</g>

<!-- Child Node 3 (collapsed, isChild) -->
<rect x="47" y="680" width="327" height="64" fill="#fff" stroke="#000" stroke-width="1.5"/>
<text x="63" y="706" font-size="14" font-weight="700" fill="#111">Child Asset C</text>
<text x="63" y="726" font-size="11" fill="#666">Subtitle / Location / Short description</text>
<g transform="translate(346,712)">
  <polygon points="10,0 0,6 10,12" fill="#000"/>
  <title>Expand DataCard</title>
</g>

<!-- Create New Sub-Asset button (child variant) -->
<rect x="47" y="756" width="327" height="48" fill="#fff" stroke="#000" stroke-width="1.5"/>
<text x="210.5" y="784" font-size="14" text-anchor="middle" fill="#000">Create New Sub‑Asset</text>

</svg>


