<?xml version="1.0" encoding="UTF-8" standalone="no"?>
<svg version="1.1" xmlns="http://www.w3.org/2000/svg" xmlns:xlink="http://www.w3.org/1999/xlink" width="316.8" height="624">
	<g id="dp_dp001" transform="matrix(1,0,0,1,-71.428,-62.9027)">
		<path id="dp_path002" fill="#212a40" fill-rule="evenodd" stroke="none" stroke-width="0" d="M 71.428,62.9027 L 388.227,62.9027 L 388.227,686.901 L 71.428,686.901 Z "/>
		<path id="dp_path003" fill="#a3a69c" fill-rule="evenodd" stroke="none" stroke-width="0" d="M 113.264,168.548 C 113.264,165.217 115.964,162.517 119.295,162.517 L 369.079,162.517 C 372.409,162.517 375.109,165.217 375.109,168.548 L 375.109,263.599 C 375.109,266.929 372.409,269.629 369.079,269.629 L 119.295,269.629 C 115.964,269.629 113.264,266.929 113.264,263.599 Z "/>
		<path id="dp_path004" fill="#a6e07f" fill-rule="evenodd" stroke="none" stroke-width="0" d="M 97.328,134.903 L 362.328,134.903 C 373.3,134.903 382.328,143.931 382.328,154.903 C 382.328,165.875 373.3,174.903 362.328,174.903 L 97.328,174.903 C 86.356,174.903 77.328,165.875 77.328,154.903 C 77.328,143.931 86.356,134.903 97.328,134.903 Z "/>
	</g>
	<text id="dp_text005" transform="matrix(1.10538,0,0,1,108.749,89)" xml:space="preserve" fill="#212a40" font-family="Nirmala UI" font-size="13" font-weight="700" x="0" y="0.008">Bigger Digger</text>
	<text id="dp_text006" transform="matrix(1.18736,0,0,1,52.1,106)" xml:space="preserve" fill="#212a40" font-family="Yu Gothic UI" font-size="9" font-weight="400" font-style="italic" x="0" y="0">Asset number BD-101-765432</text>
	<path id="dp_path007" transform="matrix(1,0,0,1,-71.428,-62.9027)" fill="#212a40" fill-rule="evenodd" stroke="none" stroke-width="0" d="M 113.264,168.3 L 109.489,161.763 L 117.039,161.763 Z "/>
	<g id="dp_dp008" transform="matrix(1,0,0,1,62.9,127.001)">
		<text id="dp_text009" transform="matrix(1.18703,0,0,1,0,0)" xml:space="preserve" fill="#212a40" font-family="Yu Gothic UI" font-size="9" font-weight="400" x="0" y="0">TypeOf:</text>
		<text id="dp_text010" transform="matrix(1.18718,0,0,1,-7.06238,0)" xml:space="preserve" fill="#212a40" font-family="Yu Gothic UI" font-size="9" font-weight="400" font-style="italic" x="37.7307" y="0">  heavyEquipement, excavator</text>
	</g>
	<path id="dp_path011" transform="matrix(1,0,0,1,-71.428,-62.9027)" fill="#a6e07f" fill-rule="evenodd" stroke="none" stroke-width="0" d="M 78.0427,106.448 C 78.0427,95.2947 86.1293,86.2533 96.104,86.2533 L 365.355,86.2533 C 375.329,86.2533 383.416,95.2947 383.416,106.448 L 383.416,106.447 C 383.416,117.6 375.329,126.641 365.355,126.641 L 96.104,126.641 C 86.1293,126.641 78.0427,117.6 78.0427,106.447 Z "/>
	<text id="dp_text012" transform="matrix(1.10219,0,0,1,93.1933,40.2747)" xml:space="preserve" fill="#212a40" font-family="Nirmala UI" font-size="13" font-weight="700" x="0" y="0.0173333">Rusty Old Tugboat</text>
	<text id="dp_text013" transform="matrix(1.18727,0,0,1,52.1,57.3013)" xml:space="preserve" fill="#212a40" font-family="Yu Gothic UI" font-size="9" font-weight="400" font-style="italic" x="0" y="0">Asset number TB-004-234567</text>
	<g id="dp_dp014" transform="matrix(1,0,0,1,-71.428,-62.9027)">
		<path id="dp_path015" fill="#212a40" fill-rule="evenodd" stroke="none" stroke-width="0" d="M 117.137,116.333 L 110.6,120.108 L 110.6,112.559 Z "/>
		<path id="dp_path016" fill="#a6e07f" fill-rule="evenodd" stroke="none" stroke-width="0" d="M 97.328,281.903 L 362.328,281.903 C 373.3,281.903 382.328,290.931 382.328,301.903 C 382.328,312.875 373.3,321.903 362.328,321.903 L 97.328,321.903 C 86.356,321.903 77.328,312.875 77.328,301.903 C 77.328,290.931 86.356,281.903 97.328,281.903 Z "/>
	</g>
	<text id="dp_text017" transform="matrix(1.10211,0,0,1,101.411,234.975)" xml:space="preserve" fill="#212a40" font-family="Nirmala UI" font-size="13" font-weight="700" x="0" y="0.0173333">Red Ford Pickup </text>
	<text id="dp_text018" transform="matrix(1.18723,0,0,1,52.1,253.001)" xml:space="preserve" fill="#212a40" font-family="Yu Gothic UI" font-size="9" font-weight="400" font-style="italic" x="0" y="0">Asset number PT-321-876543</text>
	<g id="dp_dp019" transform="matrix(1,0,0,1,-71.428,-62.9027)">
		<path id="dp_path020" fill="#212a40" fill-rule="evenodd" stroke="none" stroke-width="0" d="M 117.137,312.033 L 110.6,315.808 L 110.6,308.259 Z "/>
		<path id="dp_path021" fill="#a6e07f" fill-rule="evenodd" stroke="none" stroke-width="0" d="M 97.328,329.848 L 362.328,329.848 C 373.3,329.848 382.328,338.876 382.328,349.848 C 382.328,360.82 373.3,369.848 362.328,369.848 L 97.328,369.848 C 86.356,369.848 77.328,360.82 77.328,349.848 C 77.328,338.876 86.356,329.848 97.328,329.848 Z "/>
	</g>
	<text id="dp_text022" transform="matrix(1.10216,0,0,1,98.9507,282.92)" xml:space="preserve" fill="#212a40" font-family="Nirmala UI" font-size="13" font-weight="700" x="0" y="0.0173333">Big Green Tractor</text>
	<text id="dp_text023" transform="matrix(1.18731,0,0,1,52.1,299.947)" xml:space="preserve" fill="#212a40" font-family="Yu Gothic UI" font-size="9" font-weight="400" font-style="italic" x="0" y="0">Asset number GT-091-00123450</text>
	<g id="dp_dp024" transform="matrix(1,0,0,1,-71.428,-62.9027)">
		<path id="dp_path025" fill="#212a40" fill-rule="evenodd" stroke="none" stroke-width="0" d="M 117.137,358.979 L 110.6,362.753 L 110.6,355.204 Z "/>
		<path id="dp_path026" fill="#a6e07f" fill-rule="evenodd" stroke="none" stroke-width="0" d="M 97.328,377.793 L 362.328,377.793 C 373.3,377.793 382.328,386.821 382.328,397.793 C 382.328,408.765 373.3,417.793 362.328,417.793 L 97.328,417.793 C 86.356,417.793 77.328,408.765 77.328,397.793 C 77.328,386.821 86.356,377.793 97.328,377.793 Z "/>
	</g>
	<text id="dp_text027" transform="matrix(1.10212,0,0,1,103.608,331.865)" xml:space="preserve" fill="#212a40" font-family="Nirmala UI" font-size="13" font-weight="700" x="0" y="0.0173333">Fast Shiny Yacht</text>
	<text id="dp_text028" transform="matrix(1.18741,0,0,1,52.1,348.892)" xml:space="preserve" fill="#212a40" font-family="Yu Gothic UI" font-size="9" font-weight="400" font-style="italic" x="0" y="0">Asset number SB-840-90213111</text>
	<g id="dp_dp029" transform="matrix(1,0,0,1,-71.428,-62.9027)">
		<path id="dp_path030" fill="#212a40" fill-rule="evenodd" stroke="none" stroke-width="0" d="M 117.137,407.924 L 110.6,411.699 L 110.6,404.149 Z "/>
		<path id="dp_path031" fill="#a6e07f" fill-rule="evenodd" stroke="none" stroke-width="0" d="M 97.328,425.739 L 362.328,425.739 C 373.3,425.739 382.328,434.767 382.328,445.739 C 382.328,456.711 373.3,465.739 362.328,465.739 L 97.328,465.739 C 86.356,465.739 77.328,456.711 77.328,445.739 C 77.328,434.767 86.356,425.739 97.328,425.739 Z "/>
	</g>
	<text id="dp_text032" transform="matrix(1.10209,0,0,1,73.568,378.811)" xml:space="preserve" fill="#212a40" font-family="Nirmala UI" font-size="13" font-weight="700" x="0" y="0.0173333">Haunted Victorian House</text>
	<text id="dp_text033" transform="matrix(1.18734,0,0,1,52.1,396.837)" xml:space="preserve" fill="#212a40" font-family="Yu Gothic UI" font-size="9" font-weight="400" font-style="italic" x="0" y="0">Asset number HB-112-8000045</text>
	<g id="dp_dp034" transform="matrix(1,0,0,1,-71.428,-62.9027)">
		<path id="dp_path035" fill="#212a40" fill-rule="evenodd" stroke="none" stroke-width="0" d="M 117.037,455.869 L 110.5,459.644 L 110.5,452.095 Z "/>
		<path id="dp_path036" fill="#d0f6d1" fill-rule="evenodd" stroke="none" stroke-width="0" d="M 97.328,474.101 L 362.328,474.101 C 373.3,474.101 382.328,483.129 382.328,494.101 C 382.328,505.073 373.3,514.101 362.328,514.101 L 97.328,514.101 C 86.356,514.101 77.328,505.073 77.328,494.101 C 77.328,483.129 86.356,474.101 97.328,474.101 Z "/>
		<path id="dp_path037" fill="#fcb281" fill-rule="evenodd" stroke="none" stroke-width="0" d="M 228.367,484.975 L 228.367,492.457 C 228.367,492.457 228.367,492.457 228.367,492.457 L 220.701,492.457 L 220.701,495.744 L 228.367,495.744 C 228.367,495.744 228.367,495.744 228.367,495.744 L 228.367,503.227 L 231.288,503.227 L 231.288,495.744 C 231.288,495.744 231.288,495.744 231.288,495.744 L 238.953,495.744 L 238.953,492.457 L 231.288,492.457 C 231.288,492.457 231.288,492.457 231.288,492.457 L 231.288,484.975 Z "/>
	</g>
	<g id="dp_dp038" transform="matrix(1,0,0,1,62.9,193.999)">
		<text id="dp_text039" transform="matrix(1.18752,0,0,1,0,0)" xml:space="preserve" fill="#212a40" font-family="Yu Gothic UI" font-size="9" font-weight="400" x="0" y="0">Depot: </text>
		<text id="dp_text040" transform="matrix(1.18692,0,0,1,-6.6897,0)" xml:space="preserve" fill="#212a40" font-family="Yu Gothic UI" font-size="9" font-weight="400" font-style="italic" x="35.7893" y="0">London SE  </text>
	</g>
	<g id="dp_dp041" transform="matrix(1,0,0,1,62.9,177.249)">
		<text id="dp_text042" transform="matrix(1.18723,0,0,1,0,0)" xml:space="preserve" fill="#212a40" font-family="Yu Gothic UI" font-size="9" font-weight="400" x="0" y="0">Model : </text>
		<text id="dp_text043" transform="matrix(1.18785,0,0,1,-7.50406,0)" xml:space="preserve" fill="#212a40" font-family="Yu Gothic UI" font-size="9" font-weight="400" font-style="italic" x="39.948" y="0">JS220</text>
	</g>
	<g id="dp_dp044" transform="matrix(1,0,0,1,62.9,160.5)">
		<text id="dp_text045" transform="matrix(1.18715,0,0,1,0,0)" xml:space="preserve" fill="#212a40" font-family="Yu Gothic UI" font-size="9" font-weight="400" x="0" y="0">Manufacturer: </text>
		<text id="dp_text046" transform="matrix(1.18666,0,0,1,-13.3231,0)" xml:space="preserve" fill="#212a40" font-family="Yu Gothic UI" font-size="9" font-weight="400" font-style="italic" x="71.3773" y="0"> JCB </text>
	</g>
	<g id="dp_dp047" transform="matrix(1,0,0,1,62.9,143.751)">
		<text id="dp_text048" transform="matrix(1.18733,0,0,1,0,0)" xml:space="preserve" fill="#212a40" font-family="Yu Gothic UI" font-size="9" font-weight="400" x="0" y="0">Registration plate: </text>
		<text id="dp_text049" transform="matrix(1.18725,0,0,1,-17.1774,0)" xml:space="preserve" fill="#212a40" font-family="Yu Gothic UI" font-size="9" font-weight="400" font-style="italic" x="91.7373" y="0"> AB12 XYZ</text>
	</g>
</svg>