<svg xmlns="http://www.w3.org/2000/svg" width="390" height="844" viewBox="0 0 390 844" font-family="Inter, Arial, sans-serif">
<rect x="0" y="0" width="390" height="844" fill="white"/>

 

<!-- Node 1 (collapsed) -->
<rect x="16" y="20" width="358" height="72" fill="#fff" stroke="#000" stroke-width="1.5"/>
<text x="32" y="50" font-size="16" font-weight="700" fill="#111">Asset Name A</text>
<text x="32" y="70" font-size="12" fill="#666">Subtitle / Location / Short description</text>
<g transform="translate(346,60)">
  <polygon points="12,0 0,6 12,12" fill="#000"/>
  <title>Expand DataCard</title>
  <desc>Triangle indicates collapsed DataCard</desc>
</g>


<!-- Node 2 (collapsed) -->
<rect x="16" y="95" width="358" height="72" fill="#fff" stroke="#000" stroke-width="1.5"/>
<text x="32" y="125" font-size="16" font-weight="700" fill="#111">Asset Name B</text>
<text x="32" y="145" font-size="12" fill="#666">Subtitle / Location / Short description</text>
<g transform="translate(346,135)">
  <polygon points="12,0 0,6 12,12" fill="#000"/>
  <title>Expand DataCard</title>
</g>


<!-- Node 3 (expanded) -->
<rect x="16" y="170" width="358" height="72" fill="#fff" stroke="#000" stroke-width="1.5"/>
<text x="32" y="200" font-size="16" font-weight="700" fill="#111">Asset Name C</text>
<text x="32" y="220" font-size="12" fill="#666">Subtitle / Location / Short description</text>
<g transform="translate(346,210)">
  <polygon points="0,0 12,0 6,12" fill="#000"/>
  <title>Collapse DataCard</title>
  </g>

<!-- DataCard expanded -->
<rect x="47" y="242" width="327" height="190" fill="#fff" stroke="#000" stroke-width="1.5"/>

<!-- DataCard fields -->

<text x="59" y="266" font-size="12" fill="#111">Type Of:</text>
<text x="191" y="266" font-size="12" fill="#222" text-decoration="underline">Pump</text>

<text x="59" y="294" font-size="12" fill="#111">Description:</text>
<text x="191" y="294" font-size="12" fill="#222" text-decoration="underline">Primary cooling pump for HVAC</text>

<text x="59" y="322" font-size="12" fill="#111">Tags:</text>
<text x="191" y="322" font-size="12" fill="#222" text-decoration="underline">critical, hvac, maintenance</text>

<text x="59" y="350" font-size="12" fill="#111">Status:</text>
<text x="191" y="350" font-size="12" fill="#222" text-decoration="underline">In Service</text>

<text x="59" y="378" font-size="12" fill="#111">Installed Date:</text>
<text x="191" y="378" font-size="12" fill="#222" text-decoration="underline">2025-01-01</text>

<text x="59" y="406" font-size="12" fill="#222" font-weight="600">+ Add Field</text>

<!-- Node 4 (collapsed) -->
<rect x="16" y="437" width="358" height="72" fill="#fff" stroke="#000" stroke-width="1.5"/>
<text x="32" y="467" font-size="16" font-weight="700" fill="#111">Asset Name D</text>
<text x="32" y="487" font-size="12" fill="#666">Subtitle / Location / Short description</text>
<g transform="translate(346,477)">
  <polygon points="12,0 0,6 12,12" fill="#000"/>
  <title>Expand DataCard</title>
</g>


<!-- Node 5 (collapsed) -->
<rect x="16" y="512" width="358" height="72" fill="#fff" stroke="#000" stroke-width="1.5"/>
<text x="32" y="542" font-size="16" font-weight="700" fill="#111">Asset Name E</text>
<text x="32" y="562" font-size="12" fill="#666">Subtitle / Location / Short description</text>
<g transform="translate(346,552)">
  <polygon points="12,0 0,6 12,12" fill="#000"/>
  <title>Expand DataCard</title>
</g>

<!-- Node 6 (collapsed) -->
<rect x="16" y="587" width="358" height="72" fill="#fff" stroke="#000" stroke-width="1.5"/>
<text x="32" y="617" font-size="16" font-weight="700" fill="#111">Asset Name F</text>
<text x="32" y="637" font-size="12" fill="#666">Subtitle / Location / Short description</text>
<g transform="translate(346,627)">
  <polygon points="12,0 0,6 12,12" fill="#000"/>
  <title>Expand DataCard</title>
</g>

<!-- Node 7 (collapsed) -->
<rect x="16" y="662" width="358" height="72" fill="#fff" stroke="#000" stroke-width="1.5"/>
<text x="32" y="692" font-size="16" font-weight="700" fill="#111">Asset Name G</text>
<text x="32" y="712" font-size="12" fill="#666">Subtitle / Location / Short description</text>
<g transform="translate(346,702)">
  <polygon points="12,0 0,6 12,12" fill="#000"/>
  <title>Expand DataCard</title>
</g>

<!-- Create New Asset button (root variant) -->
<rect x="16" y="739" width="358" height="56" fill="#fff" stroke="#000" stroke-width="1.5"/>
<text x="195" y="771" font-size="16" text-anchor="middle" fill="#000">Create New Asset</text>
</svg>

