<?xml version="1.0" encoding="UTF-8" standalone="no"?>
<svg version="1.1" xmlns="http://www.w3.org/2000/svg" xmlns:xlink="http://www.w3.org/1999/xlink" width="333" height="660" viewBox="0 40 333 660">
	<text x="166" y="60" fill="#c51000" font-family="Trebuchet MS" font-size="18" font-weight="700" text-anchor="middle">ROOT view mockup</text>
	<g id="dp_dp001" transform="matrix(1,0,0,1,-32,-32)">
		<!-- UI-only background and containers; device/browser chrome removed -->
		<rect id="app_container" x="43" y="140" width="310" height="580" fill="#004275"/>
		<rect id="data_card" x="80" y="257" width="260" height="110" rx="12" fill="#6b6b6b"/>
		<rect id="tree_node_isroot_01" x="45" y="237" width="305" height="40" rx="20" fill="#bdf79b"/>
		<path id="dp_path040" fill="white" fill-rule="evenodd" stroke="black" stroke-width="0.141298" stroke-linejoin="miter" stroke-miterlimit="10" d="M 93.168,356.793 L 86.4493,360.152 L 86.4493,353.435 Z "/>
	</g>
	<g id="dp_dp043" transform="matrix(1,0,0,1,117,222)">
		<text id="dp_text044" transform="matrix(1.10539,0,0,1,0,0)" xml:space="preserve" fill="black" font-family="Nirmala UI" font-size="13" font-weight="700" x="0" y="0">Bigger Digger</text>
		<text id="dp_text045" transform="matrix(1.10345,0,0,1,-10.0218,0)" xml:space="preserve" fill="black" font-family="Nirmala UI" font-size="8" font-weight="400" x="96.8773" y="0"> </text>
	</g>
	<text id="dp_text046" transform="matrix(1.18735,0,0,1,120,239)" xml:space="preserve" fill="black" font-family="Yu Gothic UI" font-size="7" font-weight="400" font-style="italic" x="0" y="0">Asset number BD-101-765432</text>
	<g id="dp_dp047" transform="matrix(1,0,0,1,-32,-32)">
		<path id="dp_path048" fill="#004275" fill-rule="evenodd" stroke="none" stroke-width="0" d="M 141.736,272.244 L 137.961,265.707 L 145.511,265.707 Z "/>
		<path id="dp_path049" fill="#545454" fill-rule="evenodd" stroke="none" stroke-width="0" d="M 156.077,352.512 L 182.545,352.512 L 182.545,363.188 L 156.077,363.188 Z "/>
	</g>
	<g id="dp_dp050" transform="matrix(1,0,0,1,70,327)">
		<text id="dp_text051" transform="matrix(1.18735,0,0,1,0,0)" xml:space="preserve" fill="white" font-family="Yu Gothic UI" font-size="7" font-weight="400" font-style="italic" x="0" y="0.00133333">Voltage rating:  </text>
		<text id="dp_text052" transform="matrix(1.18766,0,0,1,-10.5602,0)" xml:space="preserve" fill="white" font-family="Yu Gothic UI" font-size="7" font-weight="400" text-decoration="underline" x="56.272" y="0.00133333">240 V</text>
	</g>
	<g id="dp_dp053" transform="matrix(1,0,0,1,-32,-32)">
		<path id="dp_path054" fill="white" fill-rule="evenodd" stroke="black" stroke-width="0.141298" stroke-linejoin="miter" stroke-miterlimit="10" d="M 93.168,338.356 L 86.4493,341.715 L 86.4493,334.997 Z "/>
		<path id="dp_path055" fill="#545454" fill-rule="evenodd" stroke="none" stroke-width="0" d="M 198.891,334.075 L 253.169,334.075 L 253.169,344.751 L 198.891,344.751 Z "/>
	</g>
	<g id="dp_dp056" transform="matrix(1,0,0,1,70,309)">
		<text id="dp_text057" transform="matrix(1.18711,0,0,1,0,0)" xml:space="preserve" fill="white" font-family="Yu Gothic UI" font-size="7" font-weight="400" font-style="italic" x="0" y="0.00133333">Manufacturer part number:  </text>
		<text id="dp_text058" transform="matrix(1.18688,0,0,1,-18.6626,0)" xml:space="preserve" fill="white" font-family="Yu Gothic UI" font-size="7" font-weight="400" x="99.8627" y="0.00133333">SGN-</text>
		<text id="dp_text059" transform="matrix(1.18842,0,0,1,-22.3791,0)" xml:space="preserve" fill="white" font-family="Yu Gothic UI" font-size="7" font-weight="400" x="118.771" y="0.00133333">5490112</text>
	</g>
	<g id="dp_dp060" transform="matrix(1,0,0,1,-31.6,-32.3733)">
		<path id="dp_path061" fill="white" fill-rule="evenodd" stroke="black" stroke-width="0.141294" stroke-linejoin="miter" stroke-miterlimit="10" d="M 93.1667,320.544 L 86.4493,323.903 L 86.4493,317.185 Z "/>
		<path id="dp_path062" fill="#545454" fill-rule="evenodd" stroke="none" stroke-width="0" d="M 153.577,316.263 L 178.481,316.263 L 178.481,326.939 L 153.577,326.939 Z "/>
	</g>
	<g id="dp_dp063" transform="matrix(1,0,0,1,70,291)">
		<text id="dp_text064" transform="matrix(1.18706,0,0,1,0,0)" xml:space="preserve" fill="white" font-family="Yu Gothic UI" font-size="7" font-weight="400" font-style="italic" x="0" y="0.00133333">Manufacturer:  </text>
		<text id="dp_text065" transform="matrix(1.18727,0,0,1,-10.0445,0)" xml:space="preserve" fill="white" font-family="Yu Gothic UI" font-size="7" font-weight="400" font-style="italic" x="53.6373" y="0.00133333">Bosch</text>
	</g>
	<path id="dp_path066" transform="matrix(1,0,0,1,-31.6,-32.3733)" fill="#bdf79b" fill-rule="evenodd" stroke="none" stroke-width="0" d="M 45.3147,190.619 C 45.3147,179.465 53.4013,170.424 63.376,170.424 L 332.627,170.424 C 342.601,170.424 350.688,179.465 350.688,190.619 L 350.688,190.617 C 350.688,201.771 342.601,210.812 332.627,210.812 L 63.376,210.812 C 53.4013,210.812 45.3147,201.771 45.3147,190.617 Z "/>
	<g id="dp_dp067" transform="matrix(1,0,0,1,100,155)">
		<text id="dp_text068" transform="matrix(1.10495,0,0,1,0,0)" xml:space="preserve" fill="black" font-family="Nirmala UI" font-size="13" font-weight="700" x="0" y="-0.0253333">Rusty Old Tugboat</text>
		<text id="dp_text069" transform="matrix(1.10345,0,0,1,-13.4266,0)" xml:space="preserve" fill="black" font-family="Nirmala UI" font-size="8" font-weight="400" x="129.791" y="-0.0253333"> </text>
	</g>
	<text id="dp_text070" transform="matrix(1.18728,0,0,1,120,172)" xml:space="preserve" fill="black" font-family="Yu Gothic UI" font-size="7" font-weight="400" font-style="italic" x="0" y="0.00133333">Asset number TB-004-234567</text>
	<g id="dp_dp071" transform="matrix(1,0,0,1,-32,-32)">
		<path id="dp_path072" fill="#004275" fill-rule="evenodd" stroke="none" stroke-width="0" d="M 145.609,202.383 L 139.072,206.157 L 139.072,198.608 Z "/>
		<path id="dp_path073" fill="white" fill-rule="evenodd" stroke="black" stroke-width="0.141298" stroke-linejoin="miter" stroke-miterlimit="10" d="M 93.168,304.052 L 86.4493,307.411 L 86.4493,300.693 Z "/>
		<path id="dp_path074" fill="#545454" fill-rule="evenodd" stroke="none" stroke-width="0" d="M 167.897,299.771 L 210.331,299.771 L 210.331,310.447 L 167.897,310.447 Z "/>
	</g>
	<g id="dp_dp075" transform="matrix(1,0,0,1,70,275)">
		<text id="dp_text076" transform="matrix(1.18733,0,0,1,0,0)" xml:space="preserve" fill="white" font-family="Yu Gothic UI" font-size="7" font-weight="400" font-style="italic" x="0" y="0.00133333">Registration plate: </text>
		<text id="dp_text077" transform="matrix(1.18751,0,0,1,-12.3981,0)" xml:space="preserve" fill="white" font-family="Yu Gothic UI" font-size="7" font-weight="400" font-style="italic" x="66.1213" y="0.00133333">MH54 XZC</text>
	</g>
	<rect id="tree_node_isroot_02" transform="matrix(1,0,0,1,-32,-32)" x="45" y="385" width="305" height="40" rx="20" fill="#bdf79b"/>
	<g id="dp_dp079" transform="matrix(1,0,0,1,100,369)">
		<text id="dp_text080" transform="matrix(1.10481,0,0,1,0,0)" xml:space="preserve" fill="black" font-family="Nirmala UI" font-size="13" font-weight="700" x="0" y="-0.0253333">Red Ford Pickup </text>
		<text id="dp_text081" transform="matrix(1.10345,0,0,1,-12.12,0)" xml:space="preserve" fill="black" font-family="Nirmala UI" font-size="8" font-weight="400" x="117.16" y="-0.0253333"> </text>
	</g>
	<text id="dp_text082" transform="matrix(1.18723,0,0,1,120,387)" xml:space="preserve" fill="black" font-family="Yu Gothic UI" font-size="7" font-weight="400" font-style="italic" x="0" y="0.00133333">Asset number PT-321-876543</text>
	<g id="dp_dp083" transform="matrix(1,0,0,1,-32,-32)">
		<path id="dp_path084" fill="#004275" fill-rule="evenodd" stroke="none" stroke-width="0" d="M 145.609,416.783 L 139.072,420.557 L 139.072,413.008 Z "/>
		<rect id="tree_node_isroot_03" x="45" y="453" width="305" height="40" rx="20" fill="#bdf79b"/>
	</g>
	<g id="dp_dp086" transform="matrix(1,0,0,1,100,437)">
		<text id="dp_text087" transform="matrix(1.10499,0,0,1,0,0)" xml:space="preserve" fill="black" font-family="Nirmala UI" font-size="13" font-weight="700" x="0" y="-0.0253333">Big Green Tractor</text>
		<text id="dp_text088" transform="matrix(1.10345,0,0,1,-12.6434,0)" xml:space="preserve" fill="black" font-family="Nirmala UI" font-size="8" font-weight="400" x="122.22" y="-0.0253333"> </text>
	</g>
	<text id="dp_text089" transform="matrix(1.18733,0,0,1,120,454)" xml:space="preserve" fill="black" font-family="Yu Gothic UI" font-size="7" font-weight="400" font-style="italic" x="0" y="0.00133333">Asset number GT-091-00123450</text>
	<g id="dp_dp090" transform="matrix(1,0,0,1,-32,-32)">
		<path id="dp_path091" fill="#004275" fill-rule="evenodd" stroke="none" stroke-width="0" d="M 145.609,484.623 L 139.072,488.397 L 139.072,480.848 Z "/>
		<rect id="tree_node_isroot_04" x="45" y="519" width="305" height="40" rx="20" fill="#bdf79b"/>
	</g>
	<g id="dp_dp093" transform="matrix(1,0,0,1,100,504)">
		<text id="dp_text094" transform="matrix(1.10492,0,0,1,0,0)" xml:space="preserve" fill="black" font-family="Nirmala UI" font-size="13" font-weight="700" x="0" y="-0.0253333">Fast Shiny Yacht</text>
		<text id="dp_text095" transform="matrix(1.10345,0,0,1,-11.6532,0)" xml:space="preserve" fill="black" font-family="Nirmala UI" font-size="8" font-weight="400" x="112.648" y="-0.0253333"> </text>
	</g>
	<text id="dp_text096" transform="matrix(1.18742,0,0,1,120,521)" xml:space="preserve" fill="black" font-family="Yu Gothic UI" font-size="7" font-weight="400" font-style="italic" x="0" y="0.00133333">Asset number SB-840-90213111</text>
	<g id="dp_dp097" transform="matrix(1,0,0,1,-32,-32)">
		<path id="dp_path098" fill="#004275" fill-rule="evenodd" stroke="none" stroke-width="0" d="M 145.609,551.183 L 139.072,554.957 L 139.072,547.408 Z "/>
		<rect id="tree_node_isroot_05" x="45" y="586" width="305" height="40" rx="20" fill="#bdf79b"/>
	</g>
	<g id="dp_dp100" transform="matrix(1,0,0,1,100,570)">
		<text id="dp_text101" transform="matrix(1.1049,0,0,1,0,0)" xml:space="preserve" fill="black" font-family="Nirmala UI" font-size="13" font-weight="700" x="0" y="-0.0253333">Haunted Victorian House</text>
		<text id="dp_text102" transform="matrix(1.10345,0,0,1,-18.0421,0)" xml:space="preserve" fill="black" font-family="Nirmala UI" font-size="8" font-weight="400" x="174.407" y="-0.0253333"> </text>
	</g>
	<text id="dp_text103" transform="matrix(1.18736,0,0,1,120,588)" xml:space="preserve" fill="black" font-family="Yu Gothic UI" font-size="7" font-weight="400" font-style="italic" x="0" y="0.00133333">Asset number HB-112-8000045</text>
	<g id="dp_dp104" transform="matrix(1,0,0,1,-32,-32)">
		<path id="dp_path105" fill="#004275" fill-rule="evenodd" stroke="none" stroke-width="0" d="M 145.509,617.743 L 138.972,621.517 L 138.972,613.968 Z "/>
		<path id="dp_path106" fill="white" fill-rule="evenodd" stroke="black" stroke-width="0.141298" stroke-linejoin="miter" stroke-miterlimit="10" d="M 93.1227,289.389 L 86.404,292.748 L 86.404,286.031 Z "/>
		<path id="dp_path107" fill="#545454" fill-rule="evenodd" stroke="none" stroke-width="0" d="M 131.872,285.108 L 206.444,285.108 L 206.444,295.784 L 131.872,295.784 Z "/>
	</g>
	<text id="dp_text108" transform="matrix(1.18703,0,0,1,70,260)" xml:space="preserve" fill="white" font-family="Yu Gothic UI" font-size="7" font-weight="400" font-style="italic" x="0" y="0.00133333">TypeOf:  #heavyEquipement</text>
	<rect id="new_asset_isroot" transform="matrix(1,0,0,1,-32,-32)" x="45" y="650" width="305" height="40" rx="20" fill="#9be8f7"/>
	<text id="dp_text110" transform="matrix(1,0,0,1,-511.7,502.787)" xml:space="preserve" fill="black" font-family="Nirmala UI" font-size="30" font-weight="700" x="667.492" y="147.141">+</text>
</svg>
 